# xmcd CD database file
#
# Track frame offsets:
#	150
#	4797
#	15895
#	29417
#	40947
#	51790
#	65092
#	72557
#	84135
#	96937
#	107265
#	122237
#	135700
#	154842
#
# Disc length: 2165 seconds
#
# Revision: 2
# Processed by: cddbd v1.5PL3 Copyright (c) Steve Scherf et al.
# Submitted via: CDex 1.50
#
DISCID=b008730e
DTITLE=Laurel Canyon Ramblers - Blue Rambler 2
DYEAR=1996
DGENRE=Bluegrass
TTITLE0=RU4 Reel
TTITLE1=Bad Case of the Blues
TTITLE2=Here Today and Gone Tomorrow
TTITLE3=Preachin', Prayin', Singin'
TTITLE4=Hold On
TTITLE5=Shake Hands With Mother Again
TTITLE6=The Weasel
TTITLE7=Whistles on the Trains
TTITLE8=Just When I Needed You
TTITLE9=The Words She Writes Tonight
TTITLE10=I Wonder If I Care As Much
TTITLE11=It Won't Be Long
TTITLE12=Wait a Minute
TTITLE13=RU4 Reel (Reprise)
EXTD=YEAR: 1996
EXTT0=
EXTT1=
EXTT2=
EXTT3=
EXTT4=
EXTT5=
EXTT6=
EXTT7=
EXTT8=
EXTT9=
EXTT10=
EXTT11=
EXTT12=
EXTT13=
PLAYORDER=
